<svg xmlns="http://www.w3.org/2000/svg" viewBox="0 0 38 30"><g fill="none" fill-rule="evenodd"><path fill="none" d="M-1-5h40v40H-1z"/><path d="M34 3.333a3.333 3.333 0 013.333 3.334v20A3.333 3.333 0 0134 30H4a3.333 3.333 0 01-3.333-3.333V3.333A3.333 3.333 0 014 0h10c1.867 0 3.055.792 4.248 2.298.08.1.436.562.523.67.262.325.315.365.232.365H34zm0 23.334v-20H18.991c-1.197-.007-1.977-.567-2.815-1.606-.115-.143-.483-.62-.54-.692-.624-.788-.996-1.036-1.636-1.036H4v23.334h30zm-16.667-9.024l7.155-7.155 2.357 2.357-9.512 9.512-6.178-6.178 2.357-2.358 3.821 3.822z" fill="#398585" fill-rule="nonzero"/></g></svg>